<?xml version="1.0" encoding="UTF-8" standalone="no"?>
<svg
   viewBox="0 0 99.083519 132.21648"
   version="1.1"
   id="svg28"
   
   width="99.083519"
   height="132.21648"
   
  
  <defs
     id="defs20">
    <filter
       id="drop-shadow-filter-0"
       x="0"
       y="0"
       width="1.1242236"
       height="1.0860504"
      
      <feGaussianBlur
         in="SourceAlpha"
         stdDeviation="0"
         id="feGaussianBlur2" />
      <feOffset
         dx="10"
         dy="10"
         id="feOffset4" />
      <feComponentTransfer
         result="offsetblur"
         id="feComponentTransfer7">
        <feFuncA
           id="spread-ctrl"
           type="linear"
           slope="1.42" />
      </feComponentTransfer>
      <feFlood
         flood-color="rgba(199,223,18,0.92)"
         id="feFlood9" />
      <feComposite
         in2="offsetblur"
         operator="in"
         id="feComposite11" />
      <feMerge
         id="feMerge17">
        <feMergeNode
           id="feMergeNode13" />
        <feMergeNode
           in="SourceGraphic"
           id="feMergeNode15" />
      </feMerge>
    </filter>
  </defs>
  <path
     d="m 237.027,87.721 h 8.149 q 7.547,0 7.547,5.359 0,3.609 -2.68,5.66 -2.68,2.051 -7.438,2.051 h -10.718 l -4.047,10.063 q -6.617,16.679 -13.836,23.542 -7.219,6.864 -17.992,6.864 -10.172,0 -16.981,-6.781 -6.808,-6.782 -6.808,-16.899 0,-7.601 3.992,-14.027 3.992,-6.426 11.32,-10.528 9.297,-5.195 25.649,-5.195 l 8.64,-0.109 12.742,-31.719 q 3.282,-8.258 3.282,-11.266 0,-2.57 -2.297,-4.457 -2.297,-1.886 -5.469,-1.886 -5.305,0 -9.652,4.812 -4.348,4.813 -4.348,10.664 0,3.172 1.504,5.059 1.504,1.886 5.223,3.308 3.937,1.586 3.937,5.032 0,3.117 -2.352,5.195 -2.351,2.078 -5.851,2.078 -6.945,0 -11.84,-5.77 -4.894,-5.769 -4.894,-13.972 0,-11.977 8.968,-20.863 8.969,-8.887 21.055,-8.887 8.859,0 14.793,5.332 5.934,5.332 5.934,13.371 0,5.086 -2.844,12.25 z m -20.07,13.07 q -11.484,0 -17.609,2.188 -5.688,2.023 -8.969,5.824 -3.281,3.801 -3.281,8.394 0,4.266 2.789,7.219 2.789,2.953 6.781,2.953 5.086,0 9.16,-4.457 4.074,-4.457 8.012,-14.301 z"
     transform="rotate(-3.9999731,-182.15596,2481.6083)"
     style="text-transform:capitalize;white-space:pre;fill:#498511;stroke-width:17px;stroke-miterlimit:8;filter:url(#drop-shadow-filter-0)"
     id="path22" />
  
</svg>
