 <svg  version="1.0" xmlns="http://www.w3.org/2000/svg"  width="300.000000pt" height="300.000000pt" viewBox="0 0 300.000000 300.000000"  preserveAspectRatio="xMidYMid meet">  <g transform="translate(0.000000,300.000000) scale(0.050000,-0.050000)" fill="#12e216" stroke="none"> <path d="M2641 5714 c-155 -50 -280 -250 -254 -408 23 -146 163 -255 266 -208 49 22 50 21 36 -43 -19 -92 -13 -88 -167 -101 -424 -35 -582 -392 -286 -648 307 -267 540 -178 676 259 l35 115 94 0 c64 0 103 11 126 37 63 69 30 163 -59 163 -70 0 -72 86 -6 282 86 258 76 304 -99 453 -149 126 -217 145 -362 99z m146 -200 c31 -22 32 -36 13 -115 -13 -49 -28 -110 -34 -135 -6 -25 -17 -43 -23 -39 -172 86 -194 246 -43 301 46 16 50 16 87 -12z m265 -267 c-18 -69 -32 -151 -32 -184 0 -49 -10 -60 -63 -71 -90 -18 -98 -65 79 488 30 95 44 -118 16 -233z m6 -459 c-13 -17 -55 -43 -91 -58 -55 -23 -80 -58 -147 -198 -117 -245 -234 -330 -408 -293 l-62 14 80 15 c168 32 271 154 359 427 l34 105 96 0 c64 0 105 11 123 32 17 21 29 24 34 10 4 -13 -4 -37 -18 -54z m-458 -26 c0 -103 -127 -282 -199 -282 -180 0 -117 208 82 270 107 34 117 35 117 12z"/> </g> </svg> 